<svg width="25" height="24" viewBox="0 0 25 24" fill="none" xmlns="http://www.w3.org/2000/svg">
<path d="M17.75 6.5L6.75 17.5M8.75 10.5V6.5M6.75 8.5H10.75M13.75 15.5H17.75M8.05 21H16.45C18.1302 21 18.9702 21 19.612 20.673C20.1765 20.3854 20.6354 19.9265 20.923 19.362C21.25 18.7202 21.25 17.8802 21.25 16.2V7.8C21.25 6.11984 21.25 5.27976 20.923 4.63803C20.6354 4.07354 20.1765 3.6146 19.612 3.32698C18.9702 3 18.1302 3 16.45 3H8.05C6.36984 3 5.52976 3 4.88803 3.32698C4.32354 3.6146 3.8646 4.07354 3.57698 4.63803C3.25 5.27976 3.25 6.11984 3.25 7.8V16.2C3.25 17.8802 3.25 18.7202 3.57698 19.362C3.8646 19.9265 4.32354 20.3854 4.88803 20.673C5.52976 21 6.36984 21 8.05 21Z" stroke="#848385" stroke-width="2" stroke-linecap="round" stroke-linejoin="round"/>
</svg>
