<svg width="12" height="16" viewBox="0 0 12 16" fill="none" xmlns="http://www.w3.org/2000/svg">
<path d="M5.99996 8.00001L3.15137 5.62618C2.72813 5.27349 2.51652 5.09714 2.36438 4.88097C2.22959 4.68943 2.12949 4.4757 2.06864 4.24953C1.99996 3.99427 1.99996 3.7188 1.99996 3.16788V1.33334M5.99996 8.00001L8.84855 5.62619C9.27178 5.27349 9.4834 5.09714 9.63553 4.88097C9.77033 4.68943 9.87043 4.4757 9.93128 4.24953C9.99996 3.99427 9.99996 3.7188 9.99996 3.16788V1.33334M5.99996 8.00001L3.15137 10.3738C2.72814 10.7265 2.51652 10.9029 2.36438 11.1191C2.22959 11.3106 2.12949 11.5243 2.06864 11.7505C1.99996 12.0058 1.99996 12.2812 1.99996 12.8321V14.6667M5.99996 8.00001L8.84855 10.3738C9.27178 10.7265 9.4834 10.9029 9.63553 11.1191C9.77033 11.3106 9.87043 11.5243 9.93128 11.7505C9.99996 12.0058 9.99996 12.2812 9.99996 12.8321V14.6667M0.666626 1.33334H11.3333M0.666626 14.6667H11.3333" stroke="#0076C9" stroke-width="1.33333" stroke-linecap="round" stroke-linejoin="round"/>
</svg>
