<svg width="206" height="217" viewBox="0 0 206 217" fill="none" xmlns="http://www.w3.org/2000/svg">
<g filter="url(#filter0_dd_71_500)">
<path d="M103 63.8007L110.992 60.4533L103.001 63.8575V159.167L176.641 128.309V32.9563L177 32.8059L176.641 32.6468V32.4867L176.457 32.5652L103.581 0.261414L29 32.0311L29.353 32.1827L29 127.148L103 159.111L103 63.8007Z" fill="#F9FAFB"/>
<path d="M103 63.8007V159.11L29 127.148L29.353 32.1825L103 63.8007Z" fill="#A5B3BB"/>
<path d="M103.001 63.8574V159.167L176.641 128.308V32.4866L103.001 63.8574Z" fill="#88939A"/>
<path d="M103 63.8007L177 32.806L103.581 0.261414L29 32.0311L103 63.8007Z" fill="#ECF2F6"/>
<path d="M56.896 20.1486L130.614 52.2352L131.283 75.6177L151.909 67.1072L151.285 43.5771L75.3864 12.2722L56.896 20.1486Z" fill="#7A848B"/>
</g>
<defs>
<filter id="filter0_dd_71_500" x="0.538461" y="0.261414" width="204.923" height="215.829" filterUnits="userSpaceOnUse" color-interpolation-filters="sRGB">
<feFlood flood-opacity="0" result="BackgroundImageFix"/>
<feColorMatrix in="SourceAlpha" type="matrix" values="0 0 0 0 0 0 0 0 0 0 0 0 0 0 0 0 0 0 127 0" result="hardAlpha"/>
<feMorphology radius="5.69231" operator="erode" in="SourceAlpha" result="effect1_dropShadow_71_500"/>
<feOffset dy="11.3846"/>
<feGaussianBlur stdDeviation="5.69231"/>
<feColorMatrix type="matrix" values="0 0 0 0 0.0627451 0 0 0 0 0.0941176 0 0 0 0 0.156863 0 0 0 0.03 0"/>
<feBlend mode="normal" in2="BackgroundImageFix" result="effect1_dropShadow_71_500"/>
<feColorMatrix in="SourceAlpha" type="matrix" values="0 0 0 0 0 0 0 0 0 0 0 0 0 0 0 0 0 0 127 0" result="hardAlpha"/>
<feMorphology radius="5.69231" operator="erode" in="SourceAlpha" result="effect2_dropShadow_71_500"/>
<feOffset dy="28.4615"/>
<feGaussianBlur stdDeviation="17.0769"/>
<feColorMatrix type="matrix" values="0 0 0 0 0.0627451 0 0 0 0 0.0941176 0 0 0 0 0.156863 0 0 0 0.08 0"/>
<feBlend mode="normal" in2="effect1_dropShadow_71_500" result="effect2_dropShadow_71_500"/>
<feBlend mode="normal" in="SourceGraphic" in2="effect2_dropShadow_71_500" result="shape"/>
</filter>
</defs>
</svg>
