<svg width="54" height="41" viewBox="0 0 54 41" fill="none" xmlns="http://www.w3.org/2000/svg">
<path fill-rule="evenodd" clip-rule="evenodd" d="M25.605 31.1382C25.5572 33.5045 23.6566 35.388 21.3491 35.3557C19.0416 35.3231 17.192 33.3871 17.2076 31.0201C17.2232 28.6534 19.098 26.7429 21.4057 26.7424C22.5309 26.7542 23.6056 27.2239 24.393 28.0482C25.1805 28.8726 25.6165 29.9841 25.605 31.1382Z" stroke="#FF7100" stroke-width="3.03297" stroke-linecap="round" stroke-linejoin="round"/>
<path fill-rule="evenodd" clip-rule="evenodd" d="M45.6049 31.1382C45.5572 33.5045 43.6565 35.388 41.349 35.3557C39.0415 35.3231 37.192 33.3871 37.2076 31.0201C37.2232 28.6534 39.098 26.7429 41.4056 26.7424C42.5309 26.7542 43.6056 27.2239 44.3929 28.0482C45.1805 28.8726 45.6164 29.9841 45.6049 31.1382Z" stroke="#FF7100" stroke-width="3.03297" stroke-linecap="round" stroke-linejoin="round"/>
<path d="M36.7124 32.6547C37.5499 32.6547 38.2289 31.9757 38.2289 31.1382C38.2289 30.3007 37.5499 29.6217 36.7124 29.6217V32.6547ZM25.6053 29.6217C24.7678 29.6217 24.0888 30.3007 24.0888 31.1382C24.0888 31.9757 24.7678 32.6547 25.6053 32.6547V29.6217ZM35.2038 31.1382C35.2038 31.9757 35.8826 32.6547 36.7203 32.6547C37.5578 32.6547 38.2368 31.9757 38.2368 31.1382H35.2038ZM38.2368 20.4885C38.2368 19.651 37.5578 18.972 36.7203 18.972C35.8826 18.972 35.2038 19.651 35.2038 20.4885H38.2368ZM36.7203 29.6217C35.8826 29.6217 35.2038 30.3007 35.2038 31.1382C35.2038 31.9757 35.8826 32.6547 36.7203 32.6547V29.6217ZM37.2151 32.6547C38.0526 32.6547 38.7315 31.9757 38.7315 31.1382C38.7315 30.3007 38.0526 29.6217 37.2151 29.6217V32.6547ZM45.5804 29.6221C44.7431 29.6403 44.0791 30.3337 44.0973 31.1712C44.1153 32.0085 44.8088 32.6725 45.6461 32.6543L45.5804 29.6221ZM50.051 26.4048L51.5673 26.3781C51.5658 26.2998 51.5584 26.222 51.545 26.1449L50.051 26.4048ZM50.516 20.2286C50.3725 19.4035 49.5871 18.8509 48.762 18.9944C47.9368 19.138 47.3844 19.9231 47.5278 20.7483L50.516 20.2286ZM36.7122 9.50508C35.8747 9.50508 35.1957 10.184 35.1957 11.0216C35.1957 11.8591 35.8747 12.538 36.7122 12.538V9.50508ZM43.7523 11.0216V12.5381L43.762 12.538L43.7523 11.0216ZM48.1978 15.755L46.6828 15.6904C46.6781 15.7991 46.6852 15.9079 46.7038 16.0151L48.1978 15.755ZM47.5278 20.7483C47.6713 21.5735 48.4569 22.1261 49.282 21.9825C50.1072 21.8387 50.6598 21.0536 50.516 20.2286L47.5278 20.7483ZM38.2287 11.0216C38.2287 10.184 37.5499 9.50508 36.7122 9.50508C35.8747 9.50508 35.1957 10.184 35.1957 11.0216H38.2287ZM35.1957 20.4885C35.1957 21.326 35.8747 22.0049 36.7122 22.0049C37.5499 22.0049 38.2287 21.326 38.2287 20.4885H35.1957ZM35.1957 11.0216C35.1957 11.8591 35.8747 12.538 36.7122 12.538C37.5499 12.538 38.2287 11.8591 38.2287 11.0216H35.1957ZM36.7122 9.40398L35.1957 9.39428V9.40398H36.7122ZM34.6146 7.22631L34.6233 5.70983H34.6146V7.22631ZM15.7185 7.22631V5.70981L15.7113 5.70985L15.7185 7.22631ZM13.619 9.39994H15.1355L15.1354 9.39302L13.619 9.39994ZM13.619 28.9626L15.1355 28.9694V28.9626H13.619ZM15.7185 31.1362L15.7113 32.6527H15.7185V31.1362ZM17.1991 32.6527C18.0366 32.6527 18.7156 31.9737 18.7156 31.1362C18.7156 30.2987 18.0366 29.6197 17.1991 29.6197V32.6527ZM36.7162 18.97C35.8787 18.97 35.1998 19.6489 35.1998 20.4864C35.1998 21.3239 35.8787 22.0029 36.7162 22.0029V18.97ZM49.0258 22.0029C49.8633 22.0029 50.5423 21.3239 50.5423 20.4864C50.5423 19.6489 49.8633 18.97 49.0258 18.97V22.0029ZM2.7367 9.75378C1.89917 9.75378 1.22021 10.4327 1.22021 11.2703C1.22021 12.1078 1.89917 12.7868 2.7367 12.7868V9.75378ZM8.90727 12.7868C9.74479 12.7868 10.4238 12.1078 10.4238 11.2703C10.4238 10.4327 9.74479 9.75378 8.90727 9.75378V12.7868ZM4.70813 15.8197C3.8706 15.8197 3.19164 16.4987 3.19164 17.3362C3.19164 18.1737 3.8706 18.8527 4.70813 18.8527V15.8197ZM8.65098 18.8527C9.48851 18.8527 10.1675 18.1737 10.1675 17.3362C10.1675 16.4987 9.48851 15.8197 8.65098 15.8197V18.8527ZM5.9107 21.8857C5.07317 21.8857 4.39421 22.5646 4.39421 23.4021C4.39421 24.2396 5.07317 24.9186 5.9107 24.9186V21.8857ZM8.65098 24.9186C9.48851 24.9186 10.1675 24.2396 10.1675 23.4021C10.1675 22.5646 9.48851 21.8857 8.65098 21.8857V24.9186ZM36.7124 29.6217H25.6053V32.6547H36.7124V29.6217ZM38.2368 31.1382V20.4885H35.2038V31.1382H38.2368ZM36.7203 32.6547H37.2151V29.6217H36.7203V32.6547ZM45.6461 32.6543C49.0149 32.5813 51.6263 29.7392 51.5673 26.3781L48.5347 26.4315C48.5658 28.195 47.2079 29.5868 45.5804 29.6221L45.6461 32.6543ZM51.545 26.1449L50.516 20.2286L47.5278 20.7483L48.5569 26.6646L51.545 26.1449ZM36.7122 12.538L43.7523 12.5381V9.50508H36.7122V12.538ZM43.762 12.538C44.5447 12.533 45.3038 12.8569 45.8594 13.4486L48.0703 11.3722C46.9454 10.1746 45.382 9.49451 43.7424 9.50512L43.762 12.538ZM45.8594 13.4486C46.4165 14.0417 46.7186 14.8516 46.6828 15.6904L49.7129 15.8197C49.7831 14.1764 49.1937 12.5684 48.0703 11.3722L45.8594 13.4486ZM46.7038 16.0151L47.5278 20.7483L50.516 20.2286L49.6919 15.4949L46.7038 16.0151ZM35.1957 11.0216V20.4885H38.2287V11.0216H35.1957ZM38.2287 11.0216V9.40398H35.1957V11.0216H38.2287ZM38.2287 9.41369C38.2349 8.44931 37.8676 7.51463 37.1957 6.81723L35.0113 8.92132C35.1264 9.04084 35.1967 9.21034 35.1957 9.39428L38.2287 9.41369ZM37.1957 6.81723C36.5227 6.11851 35.5983 5.71541 34.6233 5.70983L34.6061 8.74278C34.7509 8.7436 34.8975 8.80313 35.0113 8.92132L37.1957 6.81723ZM34.6146 5.70983L15.7185 5.70981V8.7428H34.6146V5.70983ZM15.7113 5.70985C14.7371 5.7145 13.8127 6.11621 13.1391 6.81357L15.3206 8.92071C15.4345 8.80279 15.5811 8.74346 15.7258 8.74278L15.7113 5.70985ZM13.1391 6.81357C12.4668 7.50959 12.0981 8.44308 12.1025 9.40687L15.1354 9.39302C15.1346 9.20918 15.2054 9.03994 15.3206 8.92071L13.1391 6.81357ZM12.1025 9.39994V28.9626H15.1355L15.1355 9.39994H12.1025ZM12.1025 28.9557C12.0981 29.9194 12.4668 30.8529 13.1391 31.5489L15.3206 29.4418C15.2054 29.3225 15.1346 29.1532 15.1355 28.9694L12.1025 28.9557ZM13.1391 31.5489C13.8127 32.2463 14.7371 32.648 15.7113 32.6527L15.7258 29.6197C15.5811 29.6191 15.4345 29.5597 15.3206 29.4418L13.1391 31.5489ZM15.7185 32.6527H17.1991V29.6197H15.7185V32.6527ZM36.7162 22.0029H49.0258V18.97H36.7162V22.0029ZM2.7367 12.7868H8.90727V9.75378H2.7367V12.7868ZM4.70813 18.8527H8.65098V15.8197H4.70813V18.8527ZM5.9107 24.9186H8.65098V21.8857H5.9107V24.9186Z" fill="#FF7100"/>
</svg>
