<svg width="25" height="24" viewBox="0 0 25 24" fill="none" xmlns="http://www.w3.org/2000/svg">
<path d="M12.25 15C9.0799 15 6.26077 16.5306 4.46597 18.906C4.07968 19.4172 3.88653 19.6728 3.89285 20.0183C3.89773 20.2852 4.06533 20.6219 4.27534 20.7867C4.54716 21 4.92384 21 5.6772 21H18.8227C19.5761 21 19.9528 21 20.2246 20.7867C20.4346 20.6219 20.6022 20.2852 20.6071 20.0183C20.6134 19.6728 20.4203 19.4172 20.034 18.906C18.2392 16.5306 15.42 15 12.25 15Z" stroke="#848385" stroke-width="2" stroke-linecap="round" stroke-linejoin="round"/>
<path d="M12.25 12C14.7353 12 16.75 9.98528 16.75 7.5C16.75 5.01472 14.7353 3 12.25 3C9.76469 3 7.74997 5.01472 7.74997 7.5C7.74997 9.98528 9.76469 12 12.25 12Z" stroke="#848385" stroke-width="2" stroke-linecap="round" stroke-linejoin="round"/>
</svg>
