<svg width="16" height="16" viewBox="0 0 16 16" fill="none" xmlns="http://www.w3.org/2000/svg">
<path d="M14.2903 1.72132C13.9568 1.37906 13.4633 1.25155 13.0031 1.38577L2.27204 4.50634C1.78651 4.64123 1.44237 5.02845 1.34966 5.52036C1.25496 6.021 1.58576 6.65652 2.01793 6.92227L5.37331 8.98453C5.71745 9.19593 6.16163 9.14291 6.44641 8.85568L10.2887 4.98953C10.4821 4.7882 10.8022 4.7882 10.9956 4.98953C11.189 5.18415 11.189 5.49956 10.9956 5.70089L7.1467 9.56771C6.86125 9.85427 6.80789 10.3005 7.01798 10.6468L9.06815 14.0358C9.30825 14.4385 9.72175 14.6667 10.1753 14.6667C10.2286 14.6667 10.2887 14.6667 10.342 14.6599C10.8622 14.5928 11.2757 14.2372 11.4291 13.7338L14.6104 3.01652C14.7505 2.56018 14.6238 2.06357 14.2903 1.72132Z" fill="white"/>
</svg>
