<svg width="78" height="83" viewBox="0 0 78 83" fill="none" xmlns="http://www.w3.org/2000/svg">
<g filter="url(#filter0_dd_3_844)">
<path d="M39 24.9787L42.024 23.712L39.0004 25.0001V61.0633L66.8642 49.387V13.3078L67 13.2509L66.8642 13.1907V13.1301L66.7945 13.1598L39.2199 0.936745L11 12.9577L11.1336 13.0151L11 48.9478L39 61.0418L39 24.9787Z" fill="#F9FAFB"/>
<path d="M39 24.9786V61.0417L11 48.9477L11.1336 13.015L39 24.9786Z" fill="#A5B3BB"/>
<path d="M39.0005 25.0001V61.0632L66.8643 49.387V13.1301L39.0005 25.0001Z" fill="#88939A"/>
<path d="M39 24.9787L67 13.2509L39.2199 0.936745L11 12.9577L39 24.9787Z" fill="#ECF2F6"/>
<path d="M21.5549 8.46164L49.4481 20.6025L49.7015 29.4499L57.5057 26.2298L57.2697 17.3265L28.5513 5.48136L21.5549 8.46164Z" fill="#7A848B"/>
</g>
<defs>
<filter id="filter0_dd_3_844" x="0.230769" y="0.936745" width="77.5385" height="81.665" filterUnits="userSpaceOnUse" color-interpolation-filters="sRGB">
<feFlood flood-opacity="0" result="BackgroundImageFix"/>
<feColorMatrix in="SourceAlpha" type="matrix" values="0 0 0 0 0 0 0 0 0 0 0 0 0 0 0 0 0 0 127 0" result="hardAlpha"/>
<feMorphology radius="2.15385" operator="erode" in="SourceAlpha" result="effect1_dropShadow_3_844"/>
<feOffset dy="4.30769"/>
<feGaussianBlur stdDeviation="2.15385"/>
<feColorMatrix type="matrix" values="0 0 0 0 0.0627451 0 0 0 0 0.0941176 0 0 0 0 0.156863 0 0 0 0.03 0"/>
<feBlend mode="normal" in2="BackgroundImageFix" result="effect1_dropShadow_3_844"/>
<feColorMatrix in="SourceAlpha" type="matrix" values="0 0 0 0 0 0 0 0 0 0 0 0 0 0 0 0 0 0 127 0" result="hardAlpha"/>
<feMorphology radius="2.15385" operator="erode" in="SourceAlpha" result="effect2_dropShadow_3_844"/>
<feOffset dy="10.7692"/>
<feGaussianBlur stdDeviation="6.46154"/>
<feColorMatrix type="matrix" values="0 0 0 0 0.0627451 0 0 0 0 0.0941176 0 0 0 0 0.156863 0 0 0 0.08 0"/>
<feBlend mode="normal" in2="effect1_dropShadow_3_844" result="effect2_dropShadow_3_844"/>
<feBlend mode="normal" in="SourceGraphic" in2="effect2_dropShadow_3_844" result="shape"/>
</filter>
</defs>
</svg>
